<svg aria-hidden="true" style="position:absolute;width:0;height:0" xmlns="http://www.w3.org/2000/svg" overflow="hidden"><defs><symbol id="icon-smile" viewBox="0 0 32 32"><path d="M16 0C7.163 0 0 7.163 0 16s7.163 16 16 16 16-7.163 16-16S24.837 0 16 0zm6 8a2 2 0 11.001 3.999A2 2 0 0122 8zM10 8a2 2 0 11.001 3.999A2 2 0 0110 8zm6 18a9.994 9.994 0 01-8.576-4.855l2.573-1.544c1.224 2.036 3.454 3.398 6.003 3.398s4.779-1.362 6.003-3.398l2.573 1.544A9.996 9.996 0 0116 26z"/></symbol><symbol id="icon-sad" viewBox="0 0 32 32"><path d="M16 0C7.163 0 0 7.163 0 16s7.163 16 16 16 16-7.163 16-16S24.837 0 16 0zm6 8a2 2 0 11.001 3.999A2 2 0 0122 8zM10 8a2 2 0 11.001 3.999A2 2 0 0110 8zm12.003 16.398C20.779 22.362 18.549 21 16 21s-4.779 1.362-6.003 3.398l-2.573-1.544c1.749-2.908 4.935-4.855 8.576-4.855s6.827 1.946 8.576 4.855l-2.573 1.544z"/></symbol></defs></svg>